<svg xmlns="http://www.w3.org/2000/svg" viewBox="0 0 69.24 73.46" style="enable-background:new 0 0 69.24 73.46" xml:space="preserve"><path d="M63.2 43.9c.08-.41.23-.78.44-1.1.22-.33.5-.62.83-.84.32-.22.69-.38 1.09-.47a3.063 3.063 0 0 1 2.29.43c.33.22.62.5.84.83.22.32.38.69.47 1.09.08.38.09.78.01 1.19-.09.48-.19.96-.3 1.43-.11.48-.23.96-.37 1.43-.14.49-.28.96-.42 1.41-.14.43-.3.89-.49 1.39a32.493 32.493 0 0 1-1.13 2.71c-.2.44-.42.88-.66 1.32-.23.43-.46.86-.71 1.29l-.01.02c-1.16 2.01-2.5 3.87-3.98 5.56a34.638 34.638 0 0 1-4.97 4.66 34.86 34.86 0 0 1-5.8 3.61 35.552 35.552 0 0 1-6.42 2.42c-2.19.59-4.45.96-6.73 1.12-2.25.15-4.52.08-6.8-.21-2.23-.29-4.44-.8-6.61-1.53a35.91 35.91 0 0 1-6.22-2.79l-.23-.13a35.079 35.079 0 0 1-5.53-3.98 34.952 34.952 0 0 1-4.63-4.96 34.86 34.86 0 0 1-3.58-5.79 34.91 34.91 0 0 1-2.4-6.38A35.43 35.43 0 0 1 .06 40.9c-.15-2.25-.08-4.52.21-6.8.29-2.22.8-4.43 1.53-6.6.72-2.13 1.65-4.21 2.79-6.21l.06-.11c.06-.11.08-.14.1-.17 1.17-1.99 2.49-3.82 3.95-5.48 1.51-1.72 3.18-3.26 4.96-4.63a34.86 34.86 0 0 1 5.79-3.58 34.957 34.957 0 0 1 19.97-3.3c2.24.3 4.47.81 6.64 1.55a35 35 0 0 1 6.23 2.83l.03.02c.35.21.64.47.88.78.24.32.42.68.52 1.05.1.38.13.78.08 1.18-.05.39-.18.78-.38 1.13-.2.36-.47.66-.78.89-.32.25-.69.43-1.07.53-.38.1-.78.13-1.18.08-.39-.05-.78-.18-1.13-.38a28.914 28.914 0 0 0-10.63-3.61c-1.88-.25-3.77-.3-5.65-.18-1.88.12-3.75.44-5.58.92-1.83.49-3.6 1.16-5.29 1.99-1.68.83-3.29 1.82-4.8 2.98a28.103 28.103 0 0 0-4.1 3.85c-1.22 1.4-2.32 2.93-3.28 4.59l-.09.16a28.901 28.901 0 0 0-3.52 10.46c-.25 1.88-.3 3.77-.18 5.65.12 1.88.44 3.75.92 5.58.49 1.83 1.16 3.6 1.99 5.29a28.583 28.583 0 0 0 11.42 12.19 28.824 28.824 0 0 0 10.62 3.61c1.88.25 3.77.3 5.65.18 1.88-.12 3.75-.44 5.58-.92 1.83-.49 3.6-1.16 5.3-1.99 1.68-.83 3.29-1.82 4.8-2.98a28.03 28.03 0 0 0 4.1-3.84 29.176 29.176 0 0 0 3.86-5.64c.16-.3.34-.68.56-1.12a36.112 36.112 0 0 0 .93-2.23c.13-.36.26-.73.39-1.12.13-.39.24-.78.35-1.17.12-.43.22-.83.3-1.18.12-.44.21-.84.29-1.25zm-7.01-4.89h-7.97c.07.64.24 1.11.52 1.43.38.45.89.67 1.5.67.39 0 .76-.1 1.11-.29.22-.12.45-.34.69-.65l3.92.36c-.6 1.04-1.32 1.79-2.17 2.24-.85.45-2.06.68-3.65.68-1.37 0-2.45-.19-3.25-.58-.79-.39-1.44-1-1.96-1.85-.52-.84-.78-1.83-.78-2.98 0-1.62.52-2.93 1.56-3.94 1.04-1 2.47-1.51 4.31-1.51 1.48 0 2.66.23 3.52.68.86.45 1.51 1.1 1.96 1.95.45.85.67 1.96.67 3.33v.46h.02zm-4.05-1.91c-.08-.77-.29-1.32-.62-1.65-.34-.33-.78-.5-1.32-.5-.63 0-1.14.25-1.52.75-.24.31-.39.78-.46 1.4h3.92zm-13.13-4.27h3.73v9.8l.01.46c0 .65-.14 1.27-.42 1.86-.28.59-.64 1.07-1.1 1.43-.46.36-1.04.63-1.75.79-.71.16-1.52.25-2.43.25-2.08 0-3.52-.31-4.3-.94-.78-.62-1.17-1.46-1.17-2.51 0-.13.01-.31.02-.53l3.86.44c.1.36.25.61.45.74.29.2.66.3 1.1.3.57 0 1-.15 1.28-.46.28-.31.42-.84.42-1.6v-1.57c-.39.46-.78.8-1.17 1.01-.61.32-1.27.49-1.98.49-1.39 0-2.51-.61-3.36-1.82-.6-.86-.91-2-.91-3.41 0-1.62.39-2.85 1.17-3.7.78-.85 1.8-1.27 3.07-1.27.81 0 1.47.14 2 .41.52.27 1.01.73 1.47 1.36v-1.53h.01zm-3.74 5.03c0 .75.16 1.3.48 1.67.32.36.74.54 1.26.54.49 0 .91-.19 1.24-.56.34-.37.5-.94.5-1.69 0-.76-.18-1.33-.53-1.73-.35-.4-.78-.6-1.29-.6s-.91.18-1.21.55c-.3.36-.45.97-.45 1.82zm-9.49 2.98h-5.04l-.69 2.36h-4.52l5.38-14.33h4.83l5.39 14.33H26.5l-.72-2.36zm-.93-3.09-1.58-5.15-1.57 5.15h3.15zM49.21 23.8a3.001 3.001 0 0 1-2.32-.19c-.35-.18-.67-.43-.93-.74-.25-.3-.45-.64-.58-1.03a3.034 3.034 0 0 1 .19-2.33c.18-.35.43-.67.74-.92.3-.25.64-.45 1.03-.58l11.44-3.66-5.15-9.89c-.19-.37-.3-.75-.33-1.14-.03-.4.01-.8.13-1.18.11-.38.31-.74.57-1.05.25-.3.56-.56.93-.75.37-.19.75-.3 1.14-.33.4-.03.8.01 1.18.13.38.12.74.31 1.05.57.3.25.55.56.74.93l6.82 13.09c.03.07.06.16.1.22l.05.14.04.13c.12.39.16.78.13 1.16-.03.41-.15.8-.33 1.15-.18.35-.43.67-.74.92-.3.25-.64.45-1.03.58L49.21 23.8z" style="fill-rule:evenodd;clip-rule:evenodd"/></svg>