<svg xmlns="http://www.w3.org/2000/svg" viewBox="0 0 114.37 122.88" style="enable-background:new 0 0 114.37 122.88" xml:space="preserve"><path d="M111.15 74.12c-3.07 1.77-7.03.71-8.8-2.36l-5.88-10.18c0 16.5.21 37.38.21 53.9 0 4.07-3.33 7.39-7.39 7.39-4.07 0-7.39-3.33-7.39-7.39V82.93h-4.15v32.56c0 4.07-3.33 7.39-7.39 7.39-4.07 0-7.39-3.33-7.39-7.39 0-16.44.19-37.24.19-53.65l-5.73 9.93c-1.77 3.07-5.73 4.13-8.8 2.36-3.07-1.77-4.13-5.73-2.36-8.8l14.99-25.96c5.35-9.26 31.27-10.4 37.04-.41l15.22 26.37c1.76 3.06.7 7.02-2.37 8.79zM25.76 90.76c-1.21 0-2.18-.84-2.18-1.88S24.56 87 25.76 87h7.18V76.44H17.97c-1.21 0-2.18-.84-2.18-1.88s.98-1.88 2.18-1.88h14.97V60.92h-7.18c-1.21 0-2.18-.84-2.18-1.88s.98-1.88 2.18-1.88h7.18V46.38H17.97c-1.21 0-2.18-.84-2.18-1.88s.98-1.88 2.18-1.88h14.97V31.27h-7.18c-1.21 0-2.18-.84-2.18-1.88s.98-1.88 2.18-1.88h7.18v-11.2H17.97c-1.21 0-2.18-.84-2.18-1.88s.98-1.88 2.18-1.88h14.97V4.42H3.81v112.59h29.13V105.9H17.97c-1.21 0-2.18-.84-2.18-1.88s.98-1.88 2.18-1.88h14.97V90.76h-7.18zM2.09.61h32.57c.57 0 1.09.23 1.47.62.38.38.62.9.62 1.47v116.03c0 .57-.23 1.09-.62 1.47-.38.39-.91.62-1.47.62H2.09c-.57 0-1.09-.23-1.47-.62-.39-.38-.62-.9-.62-1.47V2.7c0-.57.23-1.09.62-1.47.38-.39.9-.62 1.47-.62zM79.88 0c8.15 0 14.75 6.6 14.75 14.75S88.03 29.5 79.88 29.5s-14.75-6.6-14.75-14.75S71.74 0 79.88 0z" style="fill-rule:evenodd;clip-rule:evenodd"/></svg>